<?xml version="1.0" standalone="no"?>
<!DOCTYPE svg PUBLIC "-//W3C//DTD SVG 20010904//EN"
 "http://www.w3.org/TR/2001/REC-SVG-20010904/DTD/svg10.dtd">
<svg version="1.0" xmlns="http://www.w3.org/2000/svg"
 width="300.000000pt" height="225.000000pt" viewBox="0 0 300.000000 225.000000"
 preserveAspectRatio="xMidYMid meet">
<metadata>
Created by potrace 1.10, written by Peter Selinger 2001-2011
</metadata>
<g transform="translate(0.000000,225.000000) scale(0.050000,-0.050000)"
fill="#000000" stroke="none">
<path d="M630 2431 c0 -1629 -5 -2074 -25 -2094 -16 -16 -25 -83 -25 -181 l0
-156 65 0 c62 0 65 4 65 73 0 104 46 110 62 9 22 -135 48 -93 48 77 l0 160 75
50 c97 67 109 64 76 -14 -51 -121 -57 -355 -10 -355 21 0 39 2 40 5 0 3 6 99
12 215 16 282 31 285 23 5 l-6 -225 95 0 95 0 2 315 c2 173 5 401 8 505 2 105
11 975 20 1935 l16 1745 -143 0 c-139 0 -143 -1 -143 -50 0 -27 -9 -50 -21
-50 -14 0 -14 -12 0 -38 24 -45 48 -722 25 -722 -9 0 -12 -33 -7 -73 5 -49 -1
-81 -21 -95 -16 -12 -39 -40 -52 -62 -19 -33 -23 -16 -25 100 -1 77 -6 268
-11 425 -5 157 -2 285 7 285 8 0 14 43 14 95 -2 150 -8 185 -28 185 -22 0 -28
-182 -23 -703 2 -206 -4 -378 -13 -384 -10 -6 -20 -166 -22 -356 -7 -522 -23
-431 -27 160 -2 287 -6 631 -8 763 -3 132 -6 303 -7 380 l-1 140 -65 0 -65 0
0 -2069z m403 616 c-7 -150 -13 -326 -13 -390 0 -114 -1 -117 -55 -117 -76 1
-112 27 -97 73 6 20 13 188 15 372 l4 335 79 0 80 0 -13 -273z m-231 -547 c2
-72 11 -155 20 -185 9 -34 8 -51 -3 -44 -11 6 -19 -31 -19 -88 0 -59 10 -103
24 -108 15 -5 17 -18 5 -36 -21 -35 -25 -419 -4 -419 8 0 15 -13 15 -30 0 -16
8 -30 19 -30 11 0 19 152 20 369 1 203 7 383 13 400 7 17 2 31 -10 31 -34 0
-26 36 19 81 33 33 48 37 70 18 32 -26 40 -119 11 -119 -10 0 -23 -14 -30 -31
-6 -18 -3 -26 8 -19 21 13 24 -162 19 -1000 -3 -486 -17 -643 -55 -635 -13 3
-24 -6 -25 -20 0 -16 -6 -15 -18 5 -23 40 -3 141 32 154 38 14 34 60 -8 84
-31 17 -35 55 -35 334 0 192 -8 317 -20 321 -13 5 -21 -137 -24 -393 -2 -219
-12 -415 -22 -435 -10 -19 -17 -55 -15 -79 2 -24 -3 -40 -12 -34 -10 6 -17
113 -17 239 0 170 -6 229 -25 229 -19 1 -19 4 1 17 32 20 44 314 14 347 -14
15 -13 18 5 8 20 -11 25 114 25 600 0 559 11 793 22 468z m317 -349 c18 -22
18 -39 0 -72 -27 -51 -58 -22 -59 56 0 51 24 58 59 16z m-227 -1546 c77 15 71
-128 -7 -164 -30 -13 -48 -18 -40 -10 8 9 5 28 -8 42 -17 21 -12 36 21 65 42
37 42 37 2 48 -23 6 -39 26 -38 47 3 36 3 36 12 0 7 -27 23 -34 58 -28z"/>
<path d="M5802 4497 c-7 -56 -105 -522 -121 -577 -12 -38 -21 -72 -21 -75 0
-3 41 -5 90 -5 78 0 90 -6 90 -42 0 -47 47 -42 56 6 3 18 -14 37 -40 45 -40
13 -34 17 42 32 161 32 101 46 -72 17 -79 -13 -104 3 -87 57 28 90 86 501 75
529 -6 14 -12 20 -12 13z"/>
<path d="M5904 4355 c-7 -178 28 -161 40 20 6 80 1 125 -13 125 -12 0 -23 -60
-27 -145z"/>
<path d="M5853 4467 c-7 -8 -12 -50 -11 -95 l2 -82 18 89 c17 90 15 112 -9 88z"/>
<path d="M4380 4444 c-16 -8 -33 -32 -37 -54 -6 -37 -3 -36 45 8 68 64 66 79
-8 46z"/>
<path d="M4600 4420 c12 -22 41 -40 66 -39 l44 0 -47 40 c-61 50 -90 50 -63
-1z"/>
<path d="M3440 4320 c0 -33 0 -64 0 -70 0 -39 28 -7 50 55 23 69 22 75 -12 75
-29 0 -38 -15 -38 -60z"/>
<path d="M5060 4231 c43 -47 146 -107 152 -87 1 3 17 -7 35 -22 36 -30 66 -19
44 17 -7 11 -34 21 -60 21 -40 0 -82 45 -75 82 1 6 -9 12 -22 13 -13 1 -46 9
-74 17 l-50 14 50 -55z"/>
<path d="M5835 4082 c-15 -129 -9 -166 22 -131 9 11 11 73 4 139 l-12 120 -14
-128z"/>
<path d="M4213 4031 c6 -18 -7 -30 -36 -34 -32 -5 -48 -21 -49 -51 -2 -26 6
-40 18 -32 12 7 16 -4 9 -31 -6 -24 -3 -38 7 -32 10 6 18 3 18 -7 0 -10 41
-30 90 -44 50 -14 90 -36 90 -48 0 -28 103 -92 148 -92 18 0 32 14 32 30 0 17
12 30 27 30 28 0 31 -69 4 -95 -10 -8 -10 -3 -2 12 12 21 5 24 -31 13 -67 -21
-70 -27 -27 -60 46 -34 69 -38 69 -10 0 11 23 18 50 15 28 -2 50 -12 50 -23 0
-10 5 -13 12 -7 16 17 -22 80 -44 72 -9 -4 -20 9 -24 28 -5 27 6 35 49 35 35
0 48 7 36 19 -23 23 -154 28 -244 10 -43 -9 -65 -6 -65 9 0 34 116 98 205 113
49 8 72 20 60 32 -12 12 -52 7 -107 -12 -131 -45 -164 -40 -196 31 -26 59 -32
62 -115 53 -48 -6 -87 -2 -87 7 0 10 23 18 50 18 54 0 69 48 21 67 -19 7 -25
1 -18 -16z m95 -103 c45 -17 40 -81 -8 -94 -22 -6 -40 -2 -40 9 0 11 -8 14
-18 8 -21 -13 -47 45 -31 71 13 21 52 23 97 6z"/>
<path d="M5049 3892 c-21 -16 -33 -35 -26 -42 17 -17 97 25 97 51 0 27 -26 24
-71 -9z"/>
<path d="M1312 3883 c-6 -10 33 -22 88 -28 103 -9 260 -94 260 -140 0 -18 -38
-25 -125 -25 -125 0 -125 0 -130 -60 -4 -55 -3 -56 15 -15 35 84 298 54 379
-44 20 -24 20 -31 1 -31 -13 0 -3 -17 23 -38 l47 -39 -45 -47 c-24 -26 -54
-77 -67 -112 -12 -36 -47 -78 -77 -93 -29 -16 -67 -44 -82 -64 -28 -33 -27
-33 20 -1 72 49 71 51 72 -151 0 -174 5 -195 81 -356 146 -308 141 -323 -58
-153 -63 55 -119 96 -124 91 -9 -10 243 -246 265 -248 8 -1 23 -28 32 -60 9
-33 33 -102 53 -154 l36 -94 -63 -38 c-140 -85 -204 -92 -314 -35 -109 58
-137 35 -34 -28 84 -51 186 -51 282 1 96 51 98 49 49 -55 -94 -199 -278 -344
-440 -348 -47 -1 -108 -8 -136 -16 l-50 -14 55 -55 c30 -30 108 -80 174 -111
l119 -56 -39 -73 c-52 -97 -37 -93 29 8 47 71 57 77 83 51 16 -16 79 -44 139
-61 138 -40 138 -42 -25 -70 -181 -32 -245 -59 -245 -101 0 -20 -13 -41 -30
-47 -16 -7 -30 -4 -30 5 0 25 -111 67 -153 58 -26 -6 -1 -25 78 -64 102 -49
115 -62 115 -115 0 -38 8 -55 22 -46 15 9 18 1 10 -26 -7 -21 1 -97 17 -167
17 -70 31 -157 31 -192 0 -87 7 -88 200 -32 94 27 193 53 220 57 28 5 154 28
280 51 127 22 257 43 290 46 l60 4 -6 148 c-4 81 -15 162 -25 181 -17 32 214
153 396 208 25 8 45 21 45 30 0 19 -151 121 -180 121 -42 0 -18 -40 43 -71
l62 -33 -197 -95 c-118 -57 -207 -89 -220 -78 -13 10 -21 4 -21 -18 0 -19 11
-44 24 -55 14 -11 31 -78 37 -150 l12 -130 -30 77 c-41 106 -90 356 -89 447 2
87 20 60 62 -94 21 -76 26 -82 32 -38 4 28 -10 100 -30 160 -45 127 -35 126
-344 49 l-209 -52 -111 44 c-317 123 -508 206 -547 239 l-44 37 78 0 c207 2
378 126 502 365 93 180 83 169 126 130 102 -93 396 -174 741 -204 80 -7 206
-28 280 -48 171 -44 685 -14 652 39 -6 10 3 19 20 19 17 0 31 -10 31 -22 0
-25 165 -11 319 27 85 21 281 182 281 231 0 23 111 71 157 69 107 -6 422 91
380 117 -20 13 -17 17 14 18 54 0 179 128 158 161 -9 15 -7 20 6 12 20 -12 55
44 37 61 -4 5 -36 -5 -69 -23 -67 -34 -111 -42 -63 -11 17 11 21 19 10 19 -37
0 -86 -38 -50 -39 27 -1 27 -3 0 -20 -16 -10 -45 -14 -63 -9 -19 6 -39 1 -46
-10 -8 -12 -24 -21 -37 -20 -13 0 -7 13 15 30 51 38 5 37 -71 -2 -58 -30 -62
-83 -5 -60 17 6 47 2 68 -10 22 -11 39 -13 39 -4 0 14 163 105 187 105 23 0
-1 -66 -35 -95 -39 -33 -40 -33 -14 0 41 54 1 42 -67 -20 -40 -36 -48 -40 -23
-10 21 25 29 45 18 45 -28 0 -86 -68 -86 -102 -1 -24 -3 -24 -18 0 -13 20 -38
23 -95 12 -71 -15 -73 -17 -27 -30 l50 -14 -56 -16 c-31 -8 -85 -6 -120 5
l-64 21 60 5 60 4 -70 15 c-62 13 -56 15 47 17 201 5 114 63 -94 64 -128 0
-155 5 -125 22 22 13 82 17 145 11 60 -6 107 -3 107 7 0 11 -65 20 -145 21
l-145 2 90 26 c50 14 72 28 50 29 -40 4 -40 4 0 21 29 13 12 18 -66 19 -59 0
-102 8 -96 17 25 42 374 -6 358 -49 -8 -22 -28 -28 -69 -19 -31 6 -57 2 -57
-8 0 -11 37 -20 82 -20 56 0 79 8 72 25 -5 14 0 41 9 60 10 19 16 35 13 35 -3
0 -81 13 -174 30 -92 16 -175 25 -183 19 -9 -5 -22 -1 -29 11 -15 25 149 26
255 2 49 -12 80 -11 88 3 7 12 4 15 -9 8 -11 -8 -27 -5 -34 7 -7 11 -59 21
-116 22 -57 1 -126 9 -154 18 -77 25 80 25 229 0 90 -14 123 -13 135 5 30 49
14 55 -139 55 -166 1 -245 14 -245 42 0 25 154 22 246 -3 96 -27 140 -14 75
21 -59 31 -373 36 -404 5 -14 -14 -13 -34 3 -66 33 -61 36 -176 6 -188 -14 -5
-20 -23 -14 -39 6 -16 25 -24 41 -18 24 9 27 -2 17 -59 -9 -44 -5 -76 9 -84
12 -8 16 -22 10 -32 -6 -11 -1 -19 11 -19 12 0 16 -10 9 -22 -8 -12 -2 -30 13
-40 33 -21 -9 -58 -62 -56 -16 1 -21 5 -9 10 12 5 17 42 12 83 -10 89 -39 40
-42 -70 0 -36 -11 -65 -22 -65 -12 0 -15 10 -8 22 8 12 2 30 -13 40 -22 14
-22 17 -2 18 15 0 21 8 15 19 -6 10 -2 24 9 31 34 21 0 53 -42 39 -33 -10 -90
62 -69 86 15 17 67 -23 58 -45 -6 -16 4 -25 27 -23 46 4 76 95 39 123 -14 11
-32 43 -39 72 -7 28 -37 62 -66 75 -38 18 -50 35 -42 64 6 21 4 39 -5 39 -8 0
-24 32 -36 70 -12 39 -18 70 -14 70 19 0 86 -157 73 -171 -8 -8 2 -10 22 -2
20 7 31 5 25 -5 -6 -10 3 -23 19 -29 17 -7 28 -19 25 -27 -3 -9 4 -18 15 -20
28 -5 19 70 -19 159 -36 87 -100 134 -188 141 -35 2 -63 12 -63 21 0 10 -13
12 -30 6 -16 -7 -30 -2 -30 10 0 14 36 16 105 7 98 -13 102 -12 65 17 -22 18
-29 32 -16 32 13 1 29 -8 36 -19 22 -35 110 -15 110 26 0 20 -7 32 -16 27 -9
-6 -29 -1 -45 10 -24 17 -23 19 6 10 19 -7 35 -3 35 7 0 25 -76 65 -98 51 -10
-6 -30 5 -45 23 -23 29 -23 31 3 16 16 -10 54 -16 83 -13 34 4 61 -7 73 -29
18 -32 22 -32 66 -1 26 18 83 34 127 35 l81 2 -75 20 c-41 11 -75 29 -75 39 0
11 -9 14 -20 7 -12 -7 -15 -21 -9 -31 6 -11 -3 -19 -20 -19 -17 0 -31 -11 -32
-25 0 -14 -9 -9 -21 10 -11 19 -52 52 -92 72 -54 28 -64 40 -39 49 17 7 46 -1
62 -18 24 -24 31 -25 31 -4 0 17 23 25 65 23 36 -2 81 -5 101 -5 20 -1 32 -9
27 -17 -5 -8 31 -17 79 -19 48 -2 88 0 88 6 0 23 -146 69 -181 58 -22 -7 -39
-3 -39 9 0 11 18 21 40 21 22 0 40 8 40 17 0 27 -108 1 -126 -30 -9 -15 -26
-27 -38 -27 -13 0 -17 6 -9 13 7 7 -4 23 -24 35 -143 86 -226 178 -98 109 30
-16 44 -15 56 4 12 19 33 15 90 -19 41 -24 79 -39 84 -34 22 22 -15 67 -78 96
-195 88 -244 114 -214 115 18 1 111 -35 205 -78 95 -44 186 -74 202 -68 15 6
79 -13 142 -41 131 -61 136 -61 121 -23 -8 23 -1 25 33 13 24 -9 44 -29 44
-44 0 -16 34 -38 75 -51 138 -42 377 -227 294 -227 -12 0 -8 -14 10 -31 17
-18 31 -42 31 -55 -1 -13 -16 -5 -35 18 -19 23 -53 48 -75 55 -33 11 -31 6 10
-29 41 -35 43 -39 10 -29 -31 10 -35 8 -17 -10 13 -13 19 -35 14 -49 -5 -14 1
-33 15 -41 15 -10 19 -7 10 8 -9 14 0 23 24 23 48 0 63 -63 39 -156 -14 -55
-24 -64 -61 -55 -30 7 -27 2 11 -15 81 -38 45 -56 -39 -21 -55 23 -83 25 -125
7 -51 -21 -161 0 -161 31 0 6 9 6 20 -1 11 -7 40 -6 63 1 62 20 5 49 -68 35
-42 -8 -55 -22 -55 -60 0 -26 -8 -43 -18 -37 -10 6 -22 0 -27 -14 -17 -47 9
-75 72 -77 l63 -1 -65 -24 c-35 -12 -63 -32 -62 -43 4 -24 82 -14 99 13 6 10
28 13 50 6 30 -10 32 -8 9 8 -22 16 -14 24 40 39 l69 18 -75 15 c-41 9 -98 10
-127 2 -38 -9 -49 -6 -43 13 5 14 31 24 57 21 38 -4 42 -1 18 15 -47 31 2 24
147 -22 132 -41 179 -71 83 -53 -50 9 -68 -12 -30 -35 23 -14 100 24 100 50 0
10 -36 29 -81 43 -54 16 -72 29 -55 40 38 24 61 21 44 -6 -9 -14 -5 -18 8 -9
13 8 42 4 66 -9 37 -20 50 -15 99 39 31 34 51 62 43 62 -8 0 -15 34 -16 75 -6
177 -129 508 -166 448 -20 -32 -70 8 -56 44 7 18 4 37 -7 44 -10 6 -19 0 -19
-14 0 -20 -5 -20 -25 0 -13 13 -25 38 -25 55 0 19 -44 50 -110 78 -105 44
-107 47 -50 55 49 7 45 10 -23 12 -111 4 -155 -13 -126 -48 18 -22 9 -23 -50
-7 -40 11 -92 15 -117 8 -30 -9 -35 -7 -18 6 20 13 2 34 -70 79 -126 80 -387
155 -355 103 7 -12 -14 -7 -48 10 -33 18 -76 32 -94 32 -18 0 -94 27 -169 60
-166 73 -226 75 -330 11 -91 -56 -62 -68 44 -18 53 25 73 27 85 9 8 -13 46
-22 85 -19 41 3 93 -10 123 -29 28 -19 66 -34 83 -34 18 0 28 -7 22 -16 -5 -9
15 -13 46 -9 40 6 60 -1 69 -26 11 -27 4 -32 -35 -24 -35 6 -52 -1 -58 -27
-11 -40 -158 -40 -254 0 -40 16 -21 20 93 16 145 -4 176 27 52 52 -30 6 -73
18 -95 26 -36 14 -37 12 -13 -18 25 -31 20 -34 -62 -34 -64 0 -94 9 -103 31
-8 21 -4 26 12 16 37 -22 116 -27 116 -6 0 11 -10 19 -21 19 -12 0 -17 8 -11
17 6 9 -24 18 -66 19 -61 3 -80 -5 -96 -41 -22 -49 -14 -95 17 -95 11 0 14 8
8 18 -6 10 7 14 29 8 47 -13 74 -46 37 -46 -14 0 -8 -14 14 -32 35 -28 35 -30
3 -20 -21 7 -31 3 -24 -8 7 -11 30 -20 52 -20 25 0 35 9 27 22 -9 14 -1 19 23
12 21 -6 74 -16 118 -23 231 -36 267 -53 276 -130 l7 -71 4 76 c3 71 -2 78
-82 112 -79 33 -82 37 -38 51 25 8 51 9 58 3 6 -7 -6 -12 -27 -12 -22 -1 -1
-18 48 -40 51 -23 81 -48 73 -61 -7 -12 4 -40 24 -64 29 -33 30 -39 6 -30 -25
9 -30 -1 -23 -47 8 -54 -40 -88 -59 -42 -4 9 -29 10 -57 2 l-50 -14 55 -2 c53
-2 82 -42 30 -42 -54 1 -85 39 -78 99 5 54 0 61 -45 61 -45 0 -52 -9 -52 -62
0 -73 -53 -50 -64 28 -12 86 -106 58 -107 -31 0 -41 9 -76 20 -77 12 -2 -15
-10 -59 -18 -100 -20 -93 -30 -97 147 -3 154 -29 186 -105 129 -14 -10 -33 -4
-48 13 -28 34 62 82 114 62 16 -6 23 -2 16 9 -7 11 -41 20 -75 20 -60 0 -61 1
-24 31 39 32 21 32 -94 2 -7 -1 -13 6 -12 17 1 11 18 17 38 14 20 -4 37 4 37
17 0 13 13 18 28 12 16 -6 34 2 39 18 13 32 -97 19 -143 -17 -18 -14 -33 -13
-49 3 -27 27 -101 30 -197 8 -63 -14 -59 -16 50 -25 128 -11 164 -45 200 -190
8 -33 43 -123 78 -200 l62 -140 1 -440 c0 -429 -1 -444 -54 -587 -30 -82 -50
-155 -45 -163 5 -9 -4 -21 -20 -27 -17 -7 -30 -26 -30 -44 0 -21 -12 -28 -35
-21 -19 6 -167 37 -329 69 -317 63 -423 104 -466 183 -106 192 -166 420 -111
420 87 0 107 229 49 565 -32 187 -52 235 -98 235 -66 0 -49 143 22 190 48 31
226 63 498 90 77 7 113 16 80 18 l-60 5 70 25 c68 25 69 26 25 49 -35 19 -42
19 -34 -2 13 -34 -260 -95 -431 -95 -123 0 -435 -43 -500 -68 -20 -8 -45 14
-76 69 -26 44 -67 90 -91 101 -25 12 -55 46 -67 77 -35 95 -336 226 -374 164z
m962 -402 c-42 -19 -75 -39 -74 -43 8 -25 -29 -78 -55 -78 -27 0 -27 -4 2 -37
44 -49 42 -83 -7 -83 -22 0 -40 9 -40 21 0 12 -12 10 -28 -5 -43 -40 -20 -54
58 -36 158 36 188 -31 205 -454 l10 -245 -54 -24 c-70 -32 -63 -144 18 -337
96 -227 163 -264 601 -340 318 -54 322 -56 296 -82 -14 -14 -57 -11 -138 10
-65 16 -233 44 -373 61 -550 68 -715 178 -773 519 -13 75 -54 197 -92 271
-103 206 -181 634 -106 589 17 -11 43 30 50 78 21 131 82 172 316 213 267 46
278 46 184 2z m1111 -168 c-8 -13 -11 -40 -8 -60 4 -23 -2 -32 -15 -24 -28 17
-29 91 -1 91 12 0 16 9 8 21 -8 14 -21 14 -41 -2 -18 -15 -28 -16 -28 -3 0 30
46 42 75 19 13 -11 18 -30 10 -42z m64 -171 c-18 -19 -53 99 -39 132 13 28 19
19 31 -44 8 -44 12 -83 8 -88z m562 -104 c21 -67 -12 -78 -158 -56 -102 16
-151 16 -195 -3 -77 -32 -76 -117 2 -143 17 -6 -11 -14 -62 -18 l-92 -8 -4
124 -4 123 76 8 c252 27 423 16 437 -27z m-181 -80 c34 -2 45 -7 25 -12 -19
-5 -35 -17 -35 -26 0 -10 -29 -6 -65 8 -36 15 -78 23 -95 18 -27 -8 -27 -7 0
13 17 12 48 17 70 12 22 -6 67 -12 100 -13z m163 -168 c28 -9 94 -223 77 -251
-7 -10 6 -19 29 -19 22 0 41 -9 41 -19 0 -17 -116 -7 -138 11 -4 4 -12 52 -17
108 -9 87 -16 100 -55 100 -41 0 -43 -7 -35 -97 12 -119 6 -123 -185 -137
l-148 -12 -14 58 c-8 32 -27 78 -43 103 -26 40 -26 45 2 45 20 0 27 11 20 30
-6 17 -4 30 6 30 9 0 37 6 62 13 42 11 45 6 45 -93 0 -114 7 -117 150 -70 32
11 34 10 10 -8 -25 -18 -22 -21 15 -22 53 0 58 44 15 120 -24 43 -29 44 -29
12 -1 -21 -7 -33 -14 -25 -15 14 31 115 63 137 17 13 72 7 143 -14z m-546
-403 c-9 -114 -27 -105 -27 15 0 62 7 97 17 83 8 -14 13 -58 10 -98z m193 -7
c26 -22 43 -43 38 -46 -14 -11 -120 -54 -130 -54 -6 0 -5 9 2 20 7 11 2 20
-10 20 -12 0 -16 11 -8 24 12 19 17 19 23 0 15 -44 42 -25 36 26 -7 60 -8 60
49 10z m472 -70 c14 -55 27 -133 27 -174 1 -64 8 -74 54 -80 80 -9 77 -44 -6
-84 -62 -29 -70 -30 -48 -3 14 17 38 31 52 31 15 0 33 10 41 23 9 15 -5 20
-48 13 -37 -5 -57 -1 -50 11 7 11 -8 14 -39 6 -57 -14 -75 12 -75 111 0 58 -3
60 -65 48 -206 -43 -308 -39 -322 10 -19 74 -17 78 46 78 32 0 64 8 70 18 5 9
29 22 51 28 22 6 35 2 28 -9 -7 -11 12 -14 45 -6 44 9 50 7 27 -9 -23 -17 -13
-21 47 -22 75 0 76 1 63 62 -26 118 70 69 102 -52z m463 -45 c-42 -4 -105 -4
-140 1 -36 4 -2 8 75 7 77 0 106 -3 65 -8z m-878 -112 c163 18 118 -8 -56 -33
-167 -24 -161 -26 -171 59 l-8 63 60 -51 c55 -46 72 -50 175 -38z m162 -115
c-14 -27 -40 -37 -85 -35 l-64 3 70 9 70 8 -70 32 -70 31 60 13 c77 18 116
-10 89 -61z m140 34 c10 -27 35 -53 55 -58 32 -8 31 -10 -4 -12 -22 -1 -52
-20 -65 -42 -14 -22 -39 -40 -56 -40 -17 0 -26 9 -19 21 9 13 -4 17 -33 10
-26 -7 -74 -3 -107 7 -56 17 -54 19 36 20 59 1 92 10 84 22 -7 11 -3 20 9 20
11 0 22 -11 22 -25 1 -14 10 -7 19 15 25 58 23 70 -10 70 -16 0 -30 9 -30 20
0 42 81 19 99 -28z m-566 -2 c0 -16 -11 -30 -25 -30 -32 0 -23 -58 13 -83 25
-17 25 -19 -1 -11 -16 5 -46 -5 -65 -22 -32 -28 -35 -26 -35 14 0 28 8 39 23
30 14 -8 18 -5 10 7 -19 31 21 125 53 125 15 0 27 -13 27 -30z m207 10 c-27
-9 -81 -16 -120 -16 l-70 1 60 15 c88 22 200 22 130 0z m50 -80 c-16 -25 -71
-25 -110 0 -22 14 -10 19 46 20 46 0 71 -8 64 -20z m138 -91 c19 -19 50 -26
86 -19 44 8 47 7 16 -7 -22 -9 -98 -22 -170 -29 -87 -8 -115 -6 -85 7 74 29
52 39 -80 36 -107 -2 -115 -4 -55 -17 61 -13 63 -15 16 -17 -29 -2 -59 -12
-66 -23 -23 -37 -81 -22 -81 20 0 25 10 37 25 31 14 -5 26 -1 26 9 0 16 59 24
274 36 35 2 77 -10 94 -27z m280 -32 c-10 -16 3 -19 44 -12 52 10 54 9 21 -16
-20 -14 -50 -21 -65 -15 -15 5 -28 0 -28 -12 0 -12 -16 -21 -35 -20 -21 1 -25
5 -10 11 14 6 20 19 14 29 -6 10 0 18 15 18 19 1 18 6 -4 20 -24 16 -21 19 16
20 30 0 41 -8 32 -23z m-1668 -716 c0 -21 10 -45 23 -53 14 -9 18 -5 9 9 -8
13 -5 23 7 23 29 0 27 -55 -2 -64 -18 -6 -18 -30 0 -101 12 -51 23 -116 23
-145 0 -29 7 -48 15 -43 8 5 15 -15 15 -44 1 -29 7 -77 15 -106 14 -50 10 -53
-106 -83 -97 -24 -116 -25 -98 -3 28 34 6 109 -33 109 -16 0 -34 -13 -41 -30
-6 -16 -24 -30 -39 -30 -15 0 -28 -8 -28 -18 0 -10 -17 -14 -38 -8 -20 5 -66
-6 -102 -24 -35 -18 -60 -26 -55 -17 6 10 2 71 -8 137 -10 66 -25 179 -34 250
-10 72 -24 146 -32 165 -12 28 -5 35 35 35 27 0 55 -13 61 -30 18 -46 58 -36
43 10 -7 22 -4 40 6 40 10 0 26 -28 36 -62 18 -61 64 -83 52 -25 -4 20 2 26
18 16 15 -10 19 -7 10 7 -7 12 -26 17 -43 11 -18 -7 -29 1 -29 20 0 18 20 36
45 41 25 6 81 18 125 29 125 30 150 27 150 -16z m-545 -73 c-6 -6 -50 -15 -98
-19 -63 -6 -76 -3 -47 10 44 20 163 28 145 9z m-55 -90 c24 -16 21 -18 -13 -8
-24 6 -49 2 -56 -9 -8 -12 -1 -16 18 -9 44 17 39 -38 -7 -80 -21 -19 -35 -50
-33 -68 3 -19 1 -23 -3 -9 -8 24 -35 33 -72 27 -10 -2 -11 6 -5 17 7 11 4 37
-8 58 -22 43 0 72 69 89 65 15 78 15 110 -8z m119 -262 c1 -20 -122 4 -154 29
-41 33 -29 70 30 90 52 18 120 -48 124 -119z m-212 29 c62 -49 47 -98 -28 -93
-98 7 -133 48 -79 92 54 44 54 44 107 1z m177 -192 c-5 -9 -25 -12 -46 -7 -22
6 -38 0 -38 -15 0 -43 -67 -86 -116 -73 -69 18 -38 102 37 102 20 0 41 -11 47
-25 6 -14 6 8 0 48 -16 104 95 152 113 49 6 -34 7 -70 3 -79z m390 27 c4 -43
-60 -89 -100 -73 -13 5 -8 11 11 11 19 1 35 14 35 28 0 20 37 74 50 74 1 0 3
-18 4 -40z"/>
<path d="M2072 3005 c18 -75 105 -329 118 -342 30 -29 19 27 -37 202 -57 178
-112 272 -81 140z"/>
<path d="M2229 1061 c6 -45 -1 -62 -32 -72 -56 -18 -41 -94 23 -111 29 -8 36
-15 16 -16 -18 -1 -39 -11 -46 -23 -9 -13 5 -16 38 -8 30 8 52 5 52 -6 0 -11
-19 -25 -41 -31 -36 -9 -39 -17 -20 -53 13 -23 17 -51 11 -61 -7 -11 2 -20 19
-20 17 0 31 9 31 20 0 33 57 22 78 -15 10 -19 25 -28 33 -21 8 8 0 28 -18 46
-17 17 -26 45 -20 61 10 25 2 26 -42 9 -66 -25 -71 -25 -71 0 0 11 19 20 42
20 34 0 40 9 31 45 -7 25 -13 56 -13 70 0 14 -25 25 -60 25 -33 0 -60 9 -60
20 0 11 18 20 40 20 42 0 73 76 53 130 -20 53 -51 32 -44 -29z"/>
<path d="M300 3865 c-63 -25 -81 -59 -46 -88 29 -23 32 -22 20 8 -14 37 48 85
77 59 8 -8 9 -3 1 11 -8 14 -16 24 -18 23 -2 0 -17 -6 -34 -13z"/>
<path d="M73 3798 c-34 -40 -34 -41 1 -34 20 5 34 18 32 30 -3 13 12 17 35 12
21 -6 39 -20 39 -32 0 -11 5 -16 10 -10 21 20 -15 76 -48 76 -18 0 -49 -19
-69 -42z"/>
<path d="M5340 3820 c0 -11 9 -20 21 -20 14 0 15 -12 2 -34 -27 -49 3 -114 98
-209 110 -112 120 -87 11 30 -76 81 -128 217 -69 181 10 -6 13 -29 6 -50 -7
-22 -2 -38 11 -38 12 0 17 9 10 20 -7 11 -3 20 9 20 12 0 2 27 -22 60 -45 60
-77 77 -77 40z"/>
<path d="M140 3730 c0 -20 -9 -27 -24 -17 -33 20 -116 28 -116 10 0 -8 25 -16
55 -19 30 -2 65 -18 78 -35 15 -20 28 -24 36 -10 7 11 3 21 -10 21 -18 0 -18
7 0 28 16 20 16 33 2 41 -12 8 -21 -1 -21 -19z"/>
<path d="M4994 3640 c6 -23 21 -38 34 -34 34 11 26 63 -11 70 -26 5 -31 -4
-23 -36z"/>
<path d="M3020 3560 c-22 -14 -7 -19 56 -20 53 0 82 8 74 20 -16 25 -91 25
-130 0z"/>
<path d="M5140 3532 c0 -31 97 -102 115 -84 13 14 -73 112 -98 112 -10 0 -17
-12 -17 -28z"/>
<path d="M5351 3357 c46 -63 118 -114 105 -75 -4 13 -39 48 -76 76 l-68 52 39
-53z"/>
<path d="M4423 3300 c5 -14 75 -49 157 -78 81 -29 151 -65 156 -82 7 -24 4
-25 -17 -5 -15 14 -41 25 -58 25 -22 -1 -17 -12 17 -38 37 -28 63 -33 106 -21
44 13 67 9 93 -17 19 -19 59 -47 89 -62 29 -16 50 -33 45 -38 -5 -5 -42 11
-83 35 -51 30 -80 37 -95 22 -14 -14 0 -25 45 -34 36 -7 70 -25 76 -40 6 -15
23 -27 38 -27 24 0 36 -22 31 -62 0 -6 12 -11 27 -11 16 0 22 9 15 21 -7 12
-14 37 -16 57 -1 19 -22 57 -47 83 -39 41 -40 48 -11 59 46 18 53 16 37 -12
-8 -14 -7 -18 2 -10 9 8 29 -3 44 -25 29 -42 66 -54 66 -22 0 29 -197 166
-225 157 -14 -5 1 -23 35 -43 l60 -34 -57 12 c-32 7 -83 17 -114 23 -35 7 -52
21 -46 37 6 18 -44 44 -157 81 -91 30 -178 59 -194 65 -16 6 -24 0 -19 -16z"/>
<path d="M5240 3313 c0 -4 50 -50 110 -102 61 -52 110 -82 110 -68 0 15 -32
48 -71 73 -43 28 -65 55 -57 70 8 13 7 18 -1 10 -9 -8 -33 -6 -54 5 -20 11
-37 17 -37 12z"/>
<path d="M1400 3282 l-110 -12 87 -13 c47 -8 97 -29 111 -48 24 -32 28 -31 69
12 42 45 28 84 -27 75 -11 -1 -69 -8 -130 -14z"/>
<path d="M2976 3209 c-31 -31 63 -349 103 -349 28 0 26 11 -19 140 -21 61 -39
135 -39 165 -1 51 -20 70 -45 44z"/>
<path d="M5608 3104 c5 -82 72 -241 72 -170 0 13 -8 28 -17 34 -9 6 -13 50 -8
98 6 61 -1 94 -22 111 -26 22 -29 12 -25 -73z"/>
<path d="M125 3151 c-36 -13 -81 -41 -100 -62 -34 -38 -34 -38 4 -4 35 31 42
31 73 3 23 -20 38 -23 47 -9 8 12 -2 21 -23 22 -27 0 -22 8 19 30 30 17 55 34
55 40 0 5 -2 8 -5 7 -3 -2 -34 -13 -70 -27z"/>
<path d="M4550 3030 l80 -29 -85 9 c-47 6 -123 14 -170 19 -47 6 -17 -6 65
-25 133 -30 142 -35 80 -42 l-70 -8 60 -16 c41 -11 25 -13 -50 -6 -60 6 -132
16 -160 23 l-50 13 50 14 50 14 -52 2 c-72 3 -88 -21 -34 -51 l46 -26 -49 0
c-38 -1 -44 -6 -25 -25 13 -13 24 -40 24 -60 0 -44 -5 -44 90 4 68 35 72 40
29 41 -42 0 -44 3 -15 20 23 13 76 11 164 -7 71 -15 125 -19 120 -10 -6 9 -26
17 -44 18 -27 1 -28 3 -4 13 53 21 83 60 55 72 -14 5 -7 11 14 11 73 3 3 38
-99 50 l-100 12 80 -30z"/>
<path d="M117 3012 c-32 -23 -32 -26 0 -47 27 -18 23 -21 -24 -13 -53 9 -55 7
-25 -23 18 -18 27 -41 20 -53 -9 -13 -17 -13 -25 0 -8 12 -23 9 -39 -8 -21
-23 -19 -27 10 -22 51 7 88 34 76 53 -15 25 40 40 72 19 22 -14 19 -18 -12
-19 -23 -1 -29 -7 -14 -12 27 -11 84 26 84 55 0 9 -13 12 -29 5 -17 -6 -44 3
-60 19 -23 23 -24 33 -6 40 14 5 20 14 15 20 -6 6 -25 0 -43 -14z"/>
<path d="M2460 2957 c0 -40 109 -317 125 -317 25 0 17 35 -35 164 -27 67 -46
127 -40 132 17 17 275 -76 464 -167 196 -95 216 -102 195 -67 -51 83 -709 320
-709 255z"/>
<path d="M4790 2940 c7 -11 -2 -20 -20 -20 -18 0 -27 -9 -20 -20 7 -11 -3 -20
-21 -20 -25 0 -28 -7 -13 -25 11 -14 24 -34 27 -45 4 -11 34 -18 67 -15 45 4
53 0 30 -15 -33 -22 2 -30 100 -23 41 3 44 0 20 -18 -24 -17 -20 -19 18 -8 27
8 42 6 35 -6 -6 -10 15 -18 48 -18 76 0 72 2 -88 63 -86 32 -155 46 -189 38
l-54 -11 54 30 c57 31 153 8 321 -80 32 -16 64 -25 70 -19 6 7 -18 22 -54 35
-49 17 -58 27 -38 41 20 13 16 16 -13 8 -22 -6 -76 7 -120 29 -53 26 -63 35
-30 29 28 -5 39 -4 25 2 -14 6 -21 19 -15 28 5 9 -9 11 -33 5 -27 -7 -39 -4
-30 10 7 11 -1 26 -19 33 -47 18 -72 15 -58 -8z"/>
<path d="M4100 2847 c0 -21 68 -66 100 -66 21 0 16 12 -17 40 -47 39 -83 50
-83 26z"/>
<path d="M4410 2844 c-25 -6 7 -19 90 -35 142 -27 171 -21 111 23 -38 28 -124
33 -201 12z"/>
<path d="M3046 2615 c-26 -35 -95 -332 -81 -347 28 -28 54 21 84 157 18 80 37
161 43 180 12 40 -18 47 -46 10z"/>
<path d="M1360 2455 c39 -10 91 -27 116 -37 52 -20 84 -9 84 29 0 18 -40 26
-135 26 -119 0 -127 -2 -65 -18z"/>
<path d="M420 2361 c-17 -10 -118 -16 -225 -14 -174 3 -195 -1 -195 -32 0 -22
15 -35 42 -35 30 0 39 -9 30 -31 -8 -21 -4 -26 13 -16 49 30 263 22 290 -12
22 -26 24 -23 14 22 -9 39 0 63 33 95 48 45 47 52 -2 23z"/>
<path d="M460 2243 c0 -20 -20 -47 -45 -59 l-45 -21 44 -2 c24 0 49 8 56 19 7
12 21 15 31 9 11 -6 19 3 19 21 0 18 -9 27 -20 20 -11 -7 -14 1 -8 19 7 17 2
31 -10 31 -12 0 -22 -17 -22 -37z"/>
<path d="M154 2092 c-8 -19 -35 -26 -88 -20 -58 6 -66 3 -36 -11 40 -18 40
-18 0 -20 -30 -1 -33 -6 -13 -19 26 -16 19 -139 -10 -187 -8 -12 -3 -15 10 -7
15 9 23 -2 23 -33 0 -26 11 -58 24 -71 15 -15 16 -24 3 -24 -11 0 -31 20 -44
45 -20 40 -22 41 -18 5 3 -22 14 -47 25 -55 12 -9 10 -15 -5 -15 -14 0 -25
-18 -25 -40 0 -42 20 -48 95 -27 68 18 54 41 -20 32 -62 -7 -63 -6 -26 24 21
17 45 31 53 31 7 0 19 13 25 29 7 20 1 25 -20 17 -23 -9 -29 0 -24 36 3 26 -2
60 -10 74 -31 49 2 88 63 75 55 -12 56 -11 57 88 2 97 -17 132 -39 73z m18
-103 c-16 -42 -112 -29 -112 15 0 22 15 36 39 36 21 0 46 11 54 25 20 31 36
-33 19 -76z"/>
<path d="M320 2040 c-3 -46 -4 -47 -20 -10 -9 22 -18 28 -19 13 0 -16 -14 -22
-31 -16 -16 7 -30 4 -30 -5 0 -20 49 -42 91 -42 15 0 38 19 50 42 14 25 15 38
3 30 -11 -7 -25 -1 -31 13 -5 14 -11 3 -13 -25z"/>
<path d="M443 1978 c-2 -18 -20 -55 -41 -82 -24 -30 -33 -59 -23 -75 23 -37
86 87 75 145 -5 25 -10 30 -11 12z"/>
<path d="M186 1840 c6 -22 2 -35 -8 -29 -30 19 -20 -32 12 -64 17 -17 24 -41
16 -54 -7 -12 2 -11 20 4 20 17 34 19 34 7 0 -12 -9 -27 -20 -34 -11 -7 -20
-23 -20 -36 0 -12 12 -5 27 17 35 50 34 109 0 109 -17 0 -27 23 -27 60 0 33
-10 60 -22 60 -13 0 -18 -18 -12 -40z"/>
<path d="M419 1704 c-7 -58 -23 -114 -38 -133 -11 -13 -12 -54 -1 -101 19 -85
10 -117 -26 -99 -13 7 -6 -3 16 -20 38 -31 41 -30 51 13 7 25 3 52 -7 59 -10
7 -12 49 -3 100 8 48 17 103 18 122 4 40 31 73 31 37 0 -13 9 -19 20 -12 11 7
20 19 20 27 0 19 -79 25 -81 7z"/>
<path d="M142 1595 c-14 -37 -31 -50 -52 -42 -45 17 -90 -30 -88 -90 2 -29 6
-39 11 -22 11 42 121 107 131 77 4 -12 18 0 30 27 13 28 15 60 5 76 -13 21
-22 15 -37 -26z"/>
<path d="M163 1458 c20 -13 17 -18 -13 -18 -35 -1 -36 -5 -10 -26 40 -33 47
-76 10 -61 -17 6 -30 1 -30 -11 0 -12 18 -22 40 -22 22 0 40 -13 40 -30 0 -16
9 -30 20 -30 23 0 26 27 5 48 -22 23 -23 140 0 155 10 6 -5 12 -35 12 -38 0
-46 -5 -27 -17z"/>
<path d="M4014 1347 c-8 -7 -47 -20 -89 -28 l-75 -14 81 -3 c45 -1 99 11 120
27 32 24 33 30 7 30 -17 1 -37 -5 -44 -12z"/>
<path d="M281 1311 c-13 -16 -21 -50 -17 -75 7 -44 9 -43 41 18 36 66 18 108
-24 57z"/>
<path d="M3700 1302 c-27 -7 -41 -19 -30 -25 11 -7 56 0 100 14 88 27 25 38
-70 11z"/>
<path d="M143 1249 c-13 -30 -15 -46 -3 -39 29 18 25 -37 -5 -67 -20 -20 -18
-23 9 -13 24 10 33 36 32 92 -1 92 -3 94 -33 27z"/>
<path d="M366 1247 c7 -7 3 -30 -9 -52 -14 -26 -14 -35 0 -27 11 7 23 -8 27
-33 5 -39 11 -35 43 32 40 84 30 122 -17 62 -25 -33 -28 -33 -18 -4 8 21 2 35
-13 35 -14 0 -20 -6 -13 -13z"/>
<path d="M294 1174 c-8 -20 -28 -29 -57 -23 -40 7 -41 5 -15 -22 73 -73 135
-49 100 40 -13 33 -17 34 -28 5z"/>
<path d="M122 1079 c-26 -22 -41 -46 -34 -54 8 -8 22 -2 31 13 13 22 18 22 28
-1 7 -15 10 -10 7 13 -2 23 7 38 21 35 14 -3 25 4 25 15 0 30 -25 23 -78 -21z"/>
<path d="M312 991 c7 -17 2 -31 -10 -31 -12 0 -21 -7 -20 -15 9 -52 -3 -75
-22 -45 -12 18 -20 20 -20 6 0 -32 27 -47 54 -29 33 20 53 116 28 132 -13 8
-17 1 -10 -18z"/>
<path d="M80 940 c0 -11 -13 -20 -29 -20 -16 0 -35 -10 -43 -23 -9 -14 -5 -18
9 -9 28 18 30 -18 3 -68 -13 -25 -13 -42 0 -50 25 -15 66 85 47 115 -8 12 -4
15 10 7 15 -9 23 1 23 27 0 22 -4 41 -10 41 -5 0 -10 -9 -10 -20z"/>
<path d="M374 831 c-31 -43 -34 -55 -11 -47 49 20 74 -8 54 -61 -13 -35 -24
-42 -42 -27 -19 16 -25 7 -26 -38 0 -32 6 -58 13 -58 27 0 -8 -83 -45 -106
-20 -13 -37 -39 -37 -59 0 -19 -11 -35 -25 -35 -19 -1 -19 -4 -1 -16 62 -39
73 -264 12 -259 -48 4 -60 24 -26 45 36 22 21 53 -25 49 -72 -6 -95 0 -95 21
0 11 14 20 31 20 25 0 26 5 5 28 -31 33 -41 26 -50 -32 -4 -24 5 -50 18 -59
20 -12 16 -23 -14 -44 -22 -16 -46 -26 -53 -21 -8 5 -20 0 -27 -12 -16 -25 13
-26 79 0 44 16 51 14 51 -20 0 -22 -13 -40 -28 -40 -16 0 -33 -11 -39 -25 -8
-18 -17 -15 -33 10 -26 42 -60 46 -60 7 0 -36 96 -60 130 -32 19 16 29 15 36
-4 7 -21 14 -21 35 -1 21 19 32 19 56 0 24 -20 28 -20 16 0 -19 30 -3 32 48 4
26 -13 39 -13 39 0 0 38 -75 62 -129 41 -38 -14 -51 -13 -51 6 0 16 29 25 80
24 l80 -1 0 79 c0 43 14 94 31 113 21 23 24 39 10 48 -12 8 -21 -2 -21 -21 0
-37 -24 -24 -33 18 -3 13 -11 44 -18 69 -9 29 -5 45 10 45 13 0 18 9 11 20 -7
11 2 26 19 32 17 7 31 26 31 43 0 23 6 25 28 6 23 -18 31 -16 38 13 6 23 10
17 12 -19 2 -44 11 -55 47 -53 34 2 36 5 10 12 -37 9 -50 86 -15 86 11 0 20 9
20 20 0 11 -17 20 -39 20 -45 0 -62 55 -32 106 16 28 13 42 -11 60 -29 22 -29
28 -3 52 17 16 35 20 42 9 7 -11 28 -4 46 15 32 33 30 35 -37 31 -52 -2 -81
-18 -112 -62z"/>
<path d="M280 840 c-25 -17 -26 -23 -2 -38 16 -10 23 -35 17 -60 -6 -23 -4
-46 4 -51 8 -6 15 30 14 80 -1 49 -2 89 -2 89 -1 0 -14 -9 -31 -20z"/>
<path d="M42 742 c-16 -10 -31 -43 -34 -72 -5 -51 -4 -52 22 -17 16 20 29 48
29 60 1 13 12 28 26 34 14 5 16 10 5 11 -11 1 -33 -7 -48 -16z"/>
<path d="M162 568 c-30 -38 -52 -48 -86 -39 -41 11 -42 10 -10 -10 20 -12 49
-17 65 -11 16 6 29 -1 29 -15 0 -14 14 -43 30 -64 29 -37 30 -37 19 14 -7 29
-3 59 9 66 39 24 23 48 -23 36 -45 -11 -45 -11 -7 32 21 24 33 43 27 43 -7 0
-30 -23 -53 -52z"/>
<path d="M114 467 c-8 -8 -15 -32 -15 -55 -2 -40 -3 -40 -17 -3 -11 27 -19 31
-30 14 -25 -40 2 -81 45 -69 27 6 36 21 28 41 -8 21 -4 27 12 17 26 -16 30 6
6 43 -9 14 -22 19 -29 12z"/>
<path d="M3166 141 c-23 -21 -47 -33 -54 -26 -7 6 -12 1 -12 -12 0 -12 11 -23
25 -22 27 0 115 68 115 87 0 23 -33 11 -74 -27z"/>
<path d="M3500 80 c-46 -15 -44 -16 20 -18 39 -1 84 7 100 18 38 24 -44 24
-120 0z"/>
</g>
</svg>
